<mxfile host="65bd71144e">
    <diagram id="CXXSiYioIeRtVV1KvOWu" name="Page-1">
        <mxGraphModel dx="1223" dy="945" grid="1" gridSize="10" guides="1" tooltips="1" connect="1" arrows="1" fold="1" page="1" pageScale="1" pageWidth="2336" pageHeight="1654" math="0" shadow="0">
            <root>
                <mxCell id="0"/>
                <mxCell id="1" parent="0"/>
                <mxCell id="2" value="order" style="swimlane;childLayout=stackLayout;resizeParent=1;resizeParentMax=0;horizontal=0;startSize=20;horizontalStack=0;fillColor=#60a917;strokeColor=#2D7600;fontColor=#ffffff;fontSize=13;" parent="1" vertex="1">
                    <mxGeometry x="83" y="80" width="2170" height="970" as="geometry"/>
                </mxCell>
                <mxCell id="3" value="Customer" style="swimlane;startSize=20;horizontal=0;" parent="2" vertex="1">
                    <mxGeometry x="20" width="2150" height="200" as="geometry"/>
                </mxCell>
                <mxCell id="20" value="Postex" style="swimlane;startSize=20;horizontal=0;fillColor=#60a917;strokeColor=#2D7600;fontColor=#ffffff;" parent="2" vertex="1">
                    <mxGeometry x="20" y="200" width="2150" height="435" as="geometry"/>
                </mxCell>
                <mxCell id="76" value="" style="edgeStyle=none;html=1;" parent="20" source="22" target="75" edge="1">
                    <mxGeometry relative="1" as="geometry"/>
                </mxCell>
                <mxCell id="22" value="&lt;font style=&quot;font-size: 18px&quot;&gt;شروع&lt;/font&gt;" style="ellipse;whiteSpace=wrap;html=1;aspect=fixed;fontSize=13;fillColor=#0050ef;strokeColor=#001DBC;fontColor=#ffffff;" parent="20" vertex="1">
                    <mxGeometry x="47" y="30" width="80" height="80" as="geometry"/>
                </mxCell>
                <mxCell id="29" value="&lt;font style=&quot;font-size: 23px&quot;&gt;پایان&lt;/font&gt;" style="ellipse;whiteSpace=wrap;html=1;fillColor=#0050ef;strokeColor=#001DBC;fontColor=#ffffff;" parent="20" vertex="1">
                    <mxGeometry x="2017" y="210" width="73" height="70" as="geometry"/>
                </mxCell>
                <mxCell id="78" value="" style="edgeStyle=none;html=1;" parent="20" source="75" target="77" edge="1">
                    <mxGeometry relative="1" as="geometry"/>
                </mxCell>
                <mxCell id="93" value="" style="edgeStyle=none;html=1;" parent="20" source="75" target="92" edge="1">
                    <mxGeometry relative="1" as="geometry"/>
                </mxCell>
                <mxCell id="75" value="استفاده از گیت وی" style="rhombus;whiteSpace=wrap;html=1;fontSize=13;fontColor=#ffffff;strokeColor=#6F0000;fillColor=#a20025;" parent="20" vertex="1">
                    <mxGeometry x="207" y="30" width="80" height="80" as="geometry"/>
                </mxCell>
                <mxCell id="77" value="بررسی سامانه گیت وی&amp;nbsp;" style="whiteSpace=wrap;html=1;fontSize=13;fontColor=#ffffff;strokeColor=#2D7600;fillColor=#60a917;" parent="20" vertex="1">
                    <mxGeometry x="347" y="40" width="120" height="60" as="geometry"/>
                </mxCell>
                <mxCell id="92" value="سرویس های خصوص" style="whiteSpace=wrap;html=1;fontSize=13;fontColor=#ffffff;strokeColor=#2D7600;fillColor=#60a917;" parent="20" vertex="1">
                    <mxGeometry x="187" y="215" width="120" height="60" as="geometry"/>
                </mxCell>
                <mxCell id="58" value="Vendor" style="swimlane;startSize=20;horizontal=0;" parent="2" vertex="1">
                    <mxGeometry x="20" y="635" width="2150" height="335" as="geometry"/>
                </mxCell>
                <mxCell id="82" value="" style="edgeStyle=none;html=1;" parent="58" source="79" target="81" edge="1">
                    <mxGeometry relative="1" as="geometry"/>
                </mxCell>
                <mxCell id="87" style="edgeStyle=none;html=1;exitX=0.5;exitY=1;exitDx=0;exitDy=0;entryX=0;entryY=0.5;entryDx=0;entryDy=0;" parent="58" source="79" target="85" edge="1">
                    <mxGeometry relative="1" as="geometry"/>
                </mxCell>
                <mxCell id="79" value="پیش کرایه بیشتر از پس کرایه باشه&amp;nbsp;" style="rhombus;whiteSpace=wrap;html=1;fontSize=13;fontColor=#ffffff;strokeColor=#6F0000;fillColor=#a20025;" parent="58" vertex="1">
                    <mxGeometry x="824.75" y="35" width="120.5" height="110" as="geometry"/>
                </mxCell>
                <mxCell id="84" value="" style="edgeStyle=none;html=1;" parent="58" source="81" target="83" edge="1">
                    <mxGeometry relative="1" as="geometry"/>
                </mxCell>
                <mxCell id="81" value="بدهکار به گیت وی&amp;nbsp;" style="whiteSpace=wrap;html=1;fontSize=13;fontColor=#ffffff;strokeColor=#2D7600;fillColor=#60a917;" parent="58" vertex="1">
                    <mxGeometry x="1005.25" y="60" width="120" height="60" as="geometry"/>
                </mxCell>
                <mxCell id="83" value="&lt;font style=&quot;font-size: 19px&quot;&gt;تسویه&lt;/font&gt;" style="whiteSpace=wrap;html=1;fontSize=13;fontColor=#ffffff;strokeColor=#2D7600;fillColor=#60a917;" parent="58" vertex="1">
                    <mxGeometry x="1205.25" y="60" width="120" height="60" as="geometry"/>
                </mxCell>
                <mxCell id="89" value="" style="edgeStyle=none;html=1;" parent="58" source="85" target="88" edge="1">
                    <mxGeometry relative="1" as="geometry"/>
                </mxCell>
                <mxCell id="85" value="طلب کاریم از گیت وی&amp;nbsp;" style="whiteSpace=wrap;html=1;fontSize=13;fontColor=#ffffff;strokeColor=#2D7600;fillColor=#60a917;" parent="58" vertex="1">
                    <mxGeometry x="1005.25" y="165" width="120" height="40" as="geometry"/>
                </mxCell>
                <mxCell id="88" value="به صورت روزانه تسویه می شود&amp;nbsp;" style="whiteSpace=wrap;html=1;fontSize=13;fontColor=#ffffff;strokeColor=#2D7600;fillColor=#60a917;" parent="58" vertex="1">
                    <mxGeometry x="1205.25" y="155" width="120" height="60" as="geometry"/>
                </mxCell>
                <mxCell id="96" value="سرویس چاپار" style="rhombus;whiteSpace=wrap;html=1;fontSize=13;fontColor=#ffffff;strokeColor=#6F0000;fillColor=#a20025;" parent="58" vertex="1">
                    <mxGeometry x="267" y="35" width="80" height="80" as="geometry"/>
                </mxCell>
                <mxCell id="100" value="دارای ارزش ریالی است" style="rhombus;whiteSpace=wrap;html=1;fontSize=13;fontColor=#ffffff;strokeColor=#6F0000;fillColor=#a20025;" parent="58" vertex="1">
                    <mxGeometry x="427" y="35" width="80" height="80" as="geometry"/>
                </mxCell>
                <mxCell id="101" value="" style="edgeStyle=none;html=1;" parent="58" source="96" target="100" edge="1">
                    <mxGeometry relative="1" as="geometry"/>
                </mxCell>
                <mxCell id="102" value="تسئیه به صورت هفتگی&amp;nbsp;" style="whiteSpace=wrap;html=1;fontSize=13;fontColor=#ffffff;strokeColor=#2D7600;fillColor=#60a917;" parent="58" vertex="1">
                    <mxGeometry x="567" y="45" width="120" height="60" as="geometry"/>
                </mxCell>
                <mxCell id="103" value="" style="edgeStyle=none;html=1;" parent="58" source="100" target="102" edge="1">
                    <mxGeometry relative="1" as="geometry"/>
                </mxCell>
                <mxCell id="104" value="ماهانه با صورت حساب" style="whiteSpace=wrap;html=1;fontSize=13;fontColor=#ffffff;strokeColor=#2D7600;fillColor=#60a917;" parent="58" vertex="1">
                    <mxGeometry x="567" y="115" width="120" height="60" as="geometry"/>
                </mxCell>
                <mxCell id="105" value="" style="edgeStyle=none;html=1;entryX=0;entryY=0.5;entryDx=0;entryDy=0;exitX=0.5;exitY=1;exitDx=0;exitDy=0;" parent="58" source="100" target="104" edge="1">
                    <mxGeometry relative="1" as="geometry"/>
                </mxCell>
                <mxCell id="106" value="سرویس ماهکس" style="whiteSpace=wrap;html=1;fontSize=13;fontColor=#ffffff;strokeColor=#2D7600;fillColor=#60a917;" parent="58" vertex="1">
                    <mxGeometry x="247" y="170" width="120" height="60" as="geometry"/>
                </mxCell>
                <mxCell id="107" value="" style="edgeStyle=none;html=1;" parent="58" source="96" target="106" edge="1">
                    <mxGeometry relative="1" as="geometry"/>
                </mxCell>
                <mxCell id="108" value="&amp;nbsp;ماهانه صورت حساب" style="whiteSpace=wrap;html=1;fontSize=13;fontColor=#ffffff;strokeColor=#2D7600;fillColor=#60a917;" parent="58" vertex="1">
                    <mxGeometry x="467" y="190" width="93" height="50" as="geometry"/>
                </mxCell>
                <mxCell id="109" value="" style="edgeStyle=none;html=1;" parent="58" source="106" target="108" edge="1">
                    <mxGeometry relative="1" as="geometry"/>
                </mxCell>
                <mxCell id="97" value="" style="edgeStyle=orthogonalEdgeStyle;html=1;" parent="2" source="92" target="96" edge="1">
                    <mxGeometry relative="1" as="geometry"/>
                </mxCell>
                <mxCell id="110" style="edgeStyle=orthogonalEdgeStyle;html=1;exitX=1;exitY=0.5;exitDx=0;exitDy=0;entryX=0.5;entryY=0;entryDx=0;entryDy=0;rounded=0;" edge="1" parent="2" source="77" target="79">
                    <mxGeometry relative="1" as="geometry"/>
                </mxCell>
            </root>
        </mxGraphModel>
    </diagram>
</mxfile>